<svg xmlns="http://www.w3.org/2000/svg" viewBox="0 0 1600 900" preserveAspectRatio="none">
  <defs>
    <filter id="glow" x="-20%" y="-20%" width="140%" height="140%">
      <feGaussianBlur stdDeviation="2.8" result="blur"/>
      <feMerge>
        <feMergeNode in="blur"/>
        <feMergeNode in="SourceGraphic"/>
      </feMerge>
    </filter>
    <linearGradient id="whiteLine" x1="0" x2="1">
      <stop offset="0" stop-color="#fff" stop-opacity="0"/>
      <stop offset="0.18" stop-color="#fff" stop-opacity="0.85"/>
      <stop offset="0.55" stop-color="#ff6a00" stop-opacity="0.72"/>
      <stop offset="1" stop-color="#fff" stop-opacity="0"/>
    </linearGradient>
  </defs>
  <rect width="1600" height="900" fill="none"/>
  <g filter="url(#glow)" fill="none" stroke-linecap="round" stroke-linejoin="round">
    <circle cx="805" cy="438" r="50" stroke="#fff" stroke-opacity="0.92" stroke-width="3"/>
    <circle cx="805" cy="438" r="118" stroke="#fff" stroke-opacity="0.36" stroke-width="2"/>
    <circle cx="805" cy="438" r="220" stroke="#ff6a00" stroke-opacity="0.2" stroke-width="2"/>
    <path d="M805 438 L673 328 L541 210 L416 96" stroke="url(#whiteLine)" stroke-width="5"/>
    <path d="M805 438 L922 290 L1031 118 L1110 0" stroke="#fff" stroke-opacity="0.75" stroke-width="4"/>
    <path d="M805 438 L1068 382 L1304 310 L1600 252" stroke="#fff" stroke-opacity="0.78" stroke-width="4"/>
    <path d="M805 438 L1040 552 L1225 680 L1490 900" stroke="#ff6a00" stroke-opacity="0.7" stroke-width="4"/>
    <path d="M805 438 L823 642 L852 790 L868 900" stroke="#fff" stroke-opacity="0.68" stroke-width="4"/>
    <path d="M805 438 L628 590 L454 725 L240 900" stroke="#fff" stroke-opacity="0.78" stroke-width="4"/>
    <path d="M805 438 L528 434 L270 384 L0 326" stroke="#ff6a00" stroke-opacity="0.65" stroke-width="4"/>
    <path d="M805 438 L747 216 L706 90 L681 0" stroke="#fff" stroke-opacity="0.7" stroke-width="4"/>
    <path d="M673 328 L660 248 L713 210 L692 154" stroke="#fff" stroke-opacity="0.48" stroke-width="2"/>
    <path d="M541 210 L490 274 L422 254 L355 308" stroke="#fff" stroke-opacity="0.5" stroke-width="2"/>
    <path d="M922 290 L1018 312 L1080 248 L1184 236" stroke="#fff" stroke-opacity="0.42" stroke-width="2"/>
    <path d="M1068 382 L1138 456 L1242 430 L1328 492" stroke="#fff" stroke-opacity="0.46" stroke-width="2"/>
    <path d="M1040 552 L1046 636 L1128 690 L1132 784" stroke="#fff" stroke-opacity="0.45" stroke-width="2"/>
    <path d="M823 642 L736 700 L744 782 L676 842" stroke="#ff6a00" stroke-opacity="0.42" stroke-width="2"/>
    <path d="M628 590 L558 544 L484 596 L392 566" stroke="#fff" stroke-opacity="0.5" stroke-width="2"/>
    <path d="M528 434 L448 492 L350 468 L248 532" stroke="#fff" stroke-opacity="0.44" stroke-width="2"/>
    <path d="M747 216 L826 172 L822 92 L910 44" stroke="#fff" stroke-opacity="0.45" stroke-width="2"/>
    <path d="M805 438 L759 402 L698 406 L641 374" stroke="#fff" stroke-opacity="0.6" stroke-width="2"/>
    <path d="M805 438 L858 402 L910 410 L974 370" stroke="#fff" stroke-opacity="0.58" stroke-width="2"/>
    <path d="M805 438 L850 486 L938 494 L1004 546" stroke="#fff" stroke-opacity="0.56" stroke-width="2"/>
    <path d="M805 438 L765 506 L666 518 L604 570" stroke="#fff" stroke-opacity="0.56" stroke-width="2"/>
  </g>
  <g fill="#fff" opacity="0.55">
    <polygon points="805,438 868,386 886,454"/>
    <polygon points="805,438 748,486 724,414"/>
    <polygon points="922,290 968,250 982,318"/>
    <polygon points="628,590 574,632 604,548"/>
    <polygon points="1068,382 1128,350 1110,426"/>
    <polygon points="528,434 468,398 486,478"/>
  </g>
</svg>
