<svg xmlns="http://www.w3.org/2000/svg" viewBox="0 0 1600 900" preserveAspectRatio="none">
  <defs>
    <filter id="hardGlow" x="-12%" y="-12%" width="124%" height="124%">
      <feGaussianBlur stdDeviation="1.15" result="blur"/>
      <feMerge>
        <feMergeNode in="blur"/>
        <feMergeNode in="SourceGraphic"/>
      </feMerge>
    </filter>
    <linearGradient id="crackWhite" x1="0" x2="1">
      <stop offset="0" stop-color="#fff" stop-opacity="0"/>
      <stop offset="0.08" stop-color="#fff" stop-opacity=".92"/>
      <stop offset=".42" stop-color="#dfefff" stop-opacity=".62"/>
      <stop offset=".76" stop-color="#ff6a00" stop-opacity=".38"/>
      <stop offset="1" stop-color="#fff" stop-opacity="0"/>
    </linearGradient>
  </defs>
  <rect width="1600" height="900" fill="none"/>
  <g filter="url(#hardGlow)" fill="none" stroke-linecap="round" stroke-linejoin="round">
    <path d="M803 441 L778 420 L804 397 L785 365 L812 337 L796 296 L826 258" stroke="#fff" stroke-opacity=".94" stroke-width="3.2"/>
    <path d="M803 441 L842 414 L888 424 L930 390 L988 402 L1048 366 L1138 381" stroke="#fff" stroke-opacity=".84" stroke-width="2.7"/>
    <path d="M803 441 L826 486 L814 536 L846 588 L838 650 L870 718 L858 824" stroke="#fff" stroke-opacity=".76" stroke-width="2.6"/>
    <path d="M803 441 L754 455 L706 432 L650 462 L590 445 L512 478 L424 450" stroke="#fff" stroke-opacity=".82" stroke-width="2.7"/>
    <path d="M803 441 L676 326 L540 214 L388 98 L240 0" stroke="url(#crackWhite)" stroke-width="4.2"/>
    <path d="M803 441 L918 302 L1038 164 L1168 0" stroke="#fff" stroke-opacity=".72" stroke-width="3.2"/>
    <path d="M803 441 L1074 380 L1324 316 L1600 248" stroke="#fff" stroke-opacity=".74" stroke-width="3.4"/>
    <path d="M803 441 L1054 558 L1240 700 L1454 900" stroke="#ff6a00" stroke-opacity=".52" stroke-width="3.4"/>
    <path d="M803 441 L626 592 L472 738 L300 900" stroke="#fff" stroke-opacity=".72" stroke-width="3.2"/>
    <path d="M803 441 L512 420 L244 368 L0 326" stroke="#ff6a00" stroke-opacity=".48" stroke-width="3.2"/>
    <path d="M778 420 L732 382 L684 392 L642 360 L584 372" stroke="#fff" stroke-opacity=".62" stroke-width="1.55"/>
    <path d="M804 397 L840 342 L894 334 L938 282 L1010 262" stroke="#fff" stroke-opacity=".56" stroke-width="1.55"/>
    <path d="M785 365 L750 315 L762 262 L724 214 L736 160" stroke="#fff" stroke-opacity=".43" stroke-width="1.35"/>
    <path d="M842 414 L884 462 L946 456 L1004 510 L1084 500" stroke="#fff" stroke-opacity=".55" stroke-width="1.45"/>
    <path d="M826 486 L874 536 L934 548 L978 604 L1044 626" stroke="#fff" stroke-opacity=".52" stroke-width="1.45"/>
    <path d="M814 536 L776 598 L792 654 L750 718 L760 792" stroke="#fff" stroke-opacity=".46" stroke-width="1.35"/>
    <path d="M754 455 L696 492 L642 488 L586 536 L520 528" stroke="#fff" stroke-opacity=".52" stroke-width="1.45"/>
    <path d="M706 432 L648 410 L594 426 L530 400 L468 416" stroke="#ff6a00" stroke-opacity=".38" stroke-width="1.35"/>
    <path d="M930 390 L980 356 L1040 370 L1102 336 L1174 352" stroke="#fff" stroke-opacity=".42" stroke-width="1.25"/>
    <path d="M650 462 L594 496 L546 486 L490 532 L428 526" stroke="#fff" stroke-opacity=".4" stroke-width="1.25"/>
    <path d="M888 424 L940 444 L996 430 L1056 462 L1120 450" stroke="#fff" stroke-opacity=".38" stroke-width="1.2"/>
    <path d="M676 326 L656 270 L694 232 L666 178 L704 132" stroke="#fff" stroke-opacity=".38" stroke-width="1.2"/>
    <path d="M540 214 L492 270 L420 254 L352 306" stroke="#fff" stroke-opacity=".38" stroke-width="1.2"/>
    <path d="M1074 380 L1140 454 L1248 428 L1342 492" stroke="#fff" stroke-opacity=".4" stroke-width="1.2"/>
    <path d="M626 592 L556 544 L482 596 L394 566" stroke="#fff" stroke-opacity=".4" stroke-width="1.2"/>
    <path d="M512 420 L450 488 L348 466 L246 532" stroke="#fff" stroke-opacity=".35" stroke-width="1.1"/>
  </g>
  <g fill="#f7fbff" opacity=".32">
    <polygon points="803,441 862,404 884,468 826,486"/>
    <polygon points="803,441 748,482 724,414"/>
    <polygon points="842,414 916,380 902,450"/>
    <polygon points="754,455 666,498 704,432"/>
    <polygon points="826,486 874,536 814,536"/>
    <polygon points="930,390 996,356 988,402"/>
    <polygon points="626,592 554,642 586,536"/>
    <polygon points="1074,380 1138,350 1120,430"/>
    <polygon points="512,420 448,392 470,478"/>
  </g>
</svg>
